 <svg  version="1.0" xmlns="http://www.w3.org/2000/svg"  width="300.000000pt" height="349.000000pt" viewBox="0 0 300.000000 349.000000"  preserveAspectRatio="xMidYMid meet">

<circle cx="150" cy="174.5" r="180" fill="#fffef3" stroke="#1ea4a3" stroke-width="10"/>


  <g transform="translate(50.000000,300.000000) scale(0.070000,-0.070000)" fill="#1ea4a3" stroke="none"> <path d="M10 3456 c0 -31 5 -38 38 -55 49 -26 155 -135 181 -188 53 -106 51 -57 51 -1459 0 -1262 -1 -1304 -19 -1365 -32 -103 -131 -222 -215 -260 -19 -9 -26 -20 -26 -39 l0 -27 152 -6 c83 -4 317 -7 520 -7 l368 0 0 29 c0 25 -8 34 -53 59 -68 38 -128 106 -170 191 l-32 66 -3 591 -2 591 37 7 c115 19 214 -9 345 -96 213 -143 380 -353 698 -883 89 -148 186 -300 216 -336 94 -118 240 -212 380 -245 129 -30 399 -5 496 47 18 9 18 11 -1 47 l-19 37 -76 -4 c-64 -2 -84 1 -133 23 -155 72 -273 225 -638 831 -214 356 -234 386 -315 466 -108 107 -264 169 -423 169 -54 0 -54 9 3 30 72 27 237 114 310 162 250 168 395 339 468 553 25 75 27 91 27 255 0 166 -2 179 -28 255 -94 269 -299 435 -652 530 -200 54 -255 57 -892 62 l-593 5 0 -36z m1135 -80 c121 -33 202 -82 305 -185 109 -109 165 -204 202 -338 28 -106 31 -323 4 -437 -51 -222 -186 -426 -356 -540 -134 -90 -345 -179 -454 -192 l-56 -7 0 863 0 863 148 -6 c86 -3 172 -12 207 -21z"/>

 </g></svg>